<?xml version="1.0" encoding="utf-8"?>
<!-- Generator: Adobe Illustrator 26.0.3, SVG Export Plug-In . SVG Version: 6.00 Build 0)  -->
<svg version="1.1" id="Layer_1" xmlns="http://www.w3.org/2000/svg" xmlns:xlink="http://www.w3.org/1999/xlink" x="0px" y="0px"
	 viewBox="0 0 500 500" style="enable-background:new 0 0 500 500;" xml:space="preserve">
<style type="text/css">
	.st0{fill:#4CB943;}
	.st1{opacity:0.26;}
	.st2{fill:url(#SVGID_1_);}
	.st3{fill:#EBEAF5;}
	.st4{fill:#FFFFFF;}
	.st5{fill:url(#SVGID_00000022541646270270041910000006743762465631025556_);}
</style>
<path class="st0" d="M500,250c0,12.5-0.9,24.7-2.7,36.7c-16,108.7-101.9,194.7-210.7,210.7c-12,1.8-24.2,2.7-36.7,2.7
	C111.9,500,0,388.1,0,250S111.9,0,250,0S500,111.9,500,250z"/>
<g class="st1">
	<path d="M158.9,213.4l103.8,67.2l100-128.5l134.6,134.5c-16,108.7-101.9,194.7-210.7,210.7L137.2,347.9L158.9,213.4z"/>
</g>
<linearGradient id="SVGID_1_" gradientUnits="userSpaceOnUse" x1="114.4629" y1="325.1166" x2="181.6792" y2="257.9003">
	<stop  offset="0" style="stop-color:#FFFFFF"/>
	<stop  offset="0.4148" style="stop-color:#FDFDFE"/>
	<stop  offset="0.6135" style="stop-color:#F6F5FA"/>
	<stop  offset="0.7662" style="stop-color:#EAE8F4"/>
	<stop  offset="0.8947" style="stop-color:#DAD6EB"/>
	<stop  offset="0.9708" style="stop-color:#CCC7E4"/>
</linearGradient>
<polygon class="st2" points="137.2,213.4 180.6,256.8 180.6,347.9 137.2,347.9 "/>
<polygon class="st3" points="250,264.9 250,326.2 180.6,256.8 137.2,213.4 137.2,152.1 180.6,195.5 "/>
<polygon class="st4" points="362.8,152.1 362.8,347.9 319.4,347.9 319.4,195.5 "/>
<linearGradient id="SVGID_00000123411145197897258400000013635561002689156536_" gradientUnits="userSpaceOnUse" x1="249.9859" y1="260.8508" x2="319.3975" y2="260.8508">
	<stop  offset="0" style="stop-color:#FFFFFF"/>
	<stop  offset="0.4017" style="stop-color:#FDFDFE"/>
	<stop  offset="0.5942" style="stop-color:#F6F5FA"/>
	<stop  offset="0.7421" style="stop-color:#EAE8F4"/>
	<stop  offset="0.8666" style="stop-color:#DAD6EB"/>
	<stop  offset="0.9403" style="stop-color:#CCC7E4"/>
</linearGradient>
<polygon style="fill:url(#SVGID_00000123411145197897258400000013635561002689156536_);" points="250,264.9 319.4,195.5 
	319.4,256.8 250,326.2 "/>
<g>
	<path class="st4" d="M140.9,93.1c2.1-3.6,4.9-6.5,8.5-8.5c3.6-2,7.6-3.1,12.1-3.1c5.2,0,9.8,1.3,13.8,4c3.9,2.7,6.7,6.4,8.3,11.1
		h-10.8c-1.1-2.2-2.6-3.9-4.5-5c-1.9-1.1-4.2-1.7-6.7-1.7c-2.7,0-5.2,0.6-7.3,1.9c-2.1,1.3-3.8,3.1-5,5.4c-1.2,2.3-1.8,5.1-1.8,8.2
		c0,3.1,0.6,5.8,1.8,8.2c1.2,2.3,2.8,4.2,5,5.4c2.1,1.3,4.6,1.9,7.3,1.9c2.6,0,4.8-0.6,6.7-1.7c1.9-1.1,3.5-2.8,4.5-5.1h10.8
		c-1.6,4.8-4.3,8.5-8.2,11.2c-3.9,2.7-8.5,4-13.8,4c-4.5,0-8.5-1-12.1-3.1c-3.6-2-6.4-4.9-8.5-8.5s-3.1-7.7-3.1-12.3
		C137.8,100.9,138.8,96.7,140.9,93.1z"/>
	<path class="st4" d="M198.4,127.2c-2.9-1.6-5.1-3.8-6.7-6.7c-1.6-2.9-2.4-6.3-2.4-10.1c0-3.8,0.8-7.2,2.5-10.1
		c1.7-2.9,4-5.2,6.9-6.7c2.9-1.6,6.2-2.4,9.7-2.4c3.6,0,6.8,0.8,9.7,2.4c2.9,1.6,5.2,3.8,6.9,6.7c1.7,2.9,2.5,6.3,2.5,10.1
		c0,3.8-0.9,7.2-2.6,10.1c-1.7,2.9-4.1,5.2-7,6.7c-2.9,1.6-6.2,2.4-9.8,2.4C204.5,129.6,201.3,128.8,198.4,127.2z M212.9,120.1
		c1.5-0.8,2.7-2.1,3.6-3.7c0.9-1.7,1.3-3.7,1.3-6c0-3.5-0.9-6.3-2.8-8.2c-1.9-1.9-4.1-2.9-6.8-2.9c-2.7,0-4.9,1-6.7,2.9
		c-1.8,1.9-2.7,4.6-2.7,8.2c0,3.5,0.9,6.3,2.7,8.2c1.8,1.9,4,2.9,6.7,2.9C209.8,121.4,211.4,121,212.9,120.1z"/>
	<path class="st4" d="M265.8,95.5c2.7,2.8,4.1,6.7,4.1,11.7V129h-9.4v-20.5c0-3-0.7-5.2-2.2-6.8c-1.5-1.6-3.5-2.4-6-2.4
		c-2.6,0-4.6,0.8-6.1,2.4c-1.5,1.6-2.2,3.9-2.2,6.8V129h-9.4V91.8h9.4v4.6c1.3-1.6,2.9-2.9,4.8-3.8c1.9-0.9,4.1-1.4,6.4-1.4
		C259.4,91.3,263,92.7,265.8,95.5z"/>
	<path class="st4" d="M310.1,95.5c2.7,2.8,4.1,6.7,4.1,11.7V129h-9.4v-20.5c0-3-0.7-5.2-2.2-6.8c-1.5-1.6-3.5-2.4-6-2.4
		c-2.6,0-4.6,0.8-6.1,2.4c-1.5,1.6-2.2,3.9-2.2,6.8V129h-9.4V91.8h9.4v4.6c1.3-1.6,2.9-2.9,4.8-3.8c1.9-0.9,4.1-1.4,6.4-1.4
		C303.8,91.3,307.4,92.7,310.1,95.5z"/>
	<path class="st4" d="M351.2,129l-10.1-15.8l-9.2,15.8h-10.6l14.8-23.6l-15-23.2h10.8L342,97.8l9.1-15.7h10.6L347,105.7l15,23.3
		H351.2z"/>
</g>
<g>
	<path class="st4" d="M165.8,369.7v46.8h-9.4v-30.5l-12.6,30.5h-7.1l-12.6-30.5v30.5h-9.4v-46.8h10.7l14.9,34.8l14.9-34.8H165.8z"/>
	<path class="st4" d="M174.9,387.8c1.5-2.9,3.5-5.1,6.1-6.7c2.6-1.6,5.4-2.3,8.6-2.3c2.8,0,5.2,0.6,7.3,1.7c2.1,1.1,3.7,2.5,5,4.2
		v-5.3h9.5v37.2h-9.5v-5.4c-1.2,1.7-2.9,3.2-5,4.3c-2.1,1.1-4.6,1.7-7.3,1.7c-3.1,0-6-0.8-8.6-2.4c-2.6-1.6-4.6-3.9-6.1-6.8
		c-1.5-2.9-2.2-6.3-2.2-10.1C172.6,394.1,173.4,390.7,174.9,387.8z M200.6,392.1c-0.9-1.6-2.1-2.9-3.6-3.8c-1.5-0.9-3.2-1.3-4.9-1.3
		s-3.4,0.4-4.8,1.3c-1.5,0.9-2.7,2.1-3.6,3.7c-0.9,1.6-1.4,3.6-1.4,5.8s0.5,4.2,1.4,5.9c0.9,1.7,2.1,3,3.6,3.9
		c1.5,0.9,3.1,1.3,4.8,1.3c1.7,0,3.4-0.4,4.9-1.3c1.5-0.9,2.7-2.1,3.6-3.8c0.9-1.6,1.3-3.6,1.3-5.9S201.5,393.7,200.6,392.1z"/>
	<path class="st4" d="M254.9,400.8h-27.2c0.2,2.7,1.2,4.8,2.8,6.3c1.7,1.5,3.7,2.3,6.1,2.3c3.5,0,6-1.5,7.5-4.5h10.1
		c-1.1,3.6-3.1,6.5-6.2,8.8c-3,2.3-6.8,3.5-11.2,3.5c-3.6,0-6.8-0.8-9.6-2.4c-2.8-1.6-5.1-3.8-6.6-6.7c-1.6-2.9-2.4-6.3-2.4-10.1
		c0-3.8,0.8-7.2,2.3-10.1c1.6-2.9,3.8-5.1,6.6-6.7c2.8-1.6,6.1-2.3,9.7-2.3c3.5,0,6.7,0.8,9.5,2.3c2.8,1.5,5,3.7,6.5,6.5
		c1.5,2.8,2.3,6,2.3,9.6C255.1,398.5,255,399.7,254.9,400.8z M245.4,394.5c0-2.4-0.9-4.4-2.6-5.8c-1.7-1.5-3.8-2.2-6.2-2.2
		c-2.3,0-4.3,0.7-5.9,2.1c-1.6,1.4-2.6,3.4-2.9,5.9H245.4z"/>
	<path class="st4" d="M268,415.5c-2.4-1.1-4.3-2.6-5.7-4.5c-1.4-1.9-2.2-4-2.3-6.2h9.5c0.2,1.4,0.9,2.6,2.1,3.6
		c1.2,0.9,2.8,1.4,4.6,1.4c1.8,0,3.2-0.4,4.2-1.1s1.5-1.6,1.5-2.8c0-1.2-0.6-2.1-1.8-2.7c-1.2-0.6-3.2-1.3-5.9-2
		c-2.8-0.7-5-1.4-6.8-2.1c-1.8-0.7-3.3-1.8-4.6-3.3s-1.9-3.5-1.9-6c0-2.1,0.6-3.9,1.8-5.6c1.2-1.7,2.9-3,5.1-4s4.8-1.5,7.8-1.5
		c4.4,0,8,1.1,10.6,3.3c2.6,2.2,4.1,5.2,4.4,9h-9c-0.1-1.5-0.8-2.7-1.8-3.5c-1.1-0.9-2.6-1.3-4.4-1.3c-1.7,0-3,0.3-3.9,0.9
		c-0.9,0.6-1.4,1.5-1.4,2.6c0,1.3,0.6,2.2,1.9,2.9c1.3,0.6,3.2,1.3,5.8,2c2.7,0.7,4.9,1.4,6.6,2.1c1.7,0.7,3.3,1.8,4.5,3.3
		c1.3,1.5,1.9,3.5,2,5.9c0,2.1-0.6,4.1-1.8,5.8c-1.2,1.7-2.9,3-5.1,4s-4.8,1.4-7.8,1.4C273.2,417.2,270.4,416.6,268,415.5z"/>
	<path class="st4" d="M309.5,387.1v18c0,1.3,0.3,2.2,0.9,2.7s1.6,0.8,3.1,0.8h4.4v7.9h-5.9c-7.9,0-11.9-3.8-11.9-11.5v-17.9h-4.4
		v-7.7h4.4v-9.2h9.5v9.2h8.3v7.7H309.5z"/>
	<path class="st4" d="M338.7,380.5c1.9-1.1,4.2-1.7,6.7-1.7v9.9h-2.5c-3,0-5.2,0.7-6.7,2.1c-1.5,1.4-2.2,3.8-2.2,7.2v18.5h-9.4
		v-37.2h9.4v5.8C335.2,383.2,336.8,381.6,338.7,380.5z"/>
	<path class="st4" d="M358.6,414.8c-2.9-1.6-5.1-3.8-6.7-6.7c-1.6-2.9-2.4-6.3-2.4-10.1c0-3.8,0.8-7.2,2.5-10.1
		c1.7-2.9,4-5.2,6.9-6.7c2.9-1.6,6.2-2.4,9.7-2.4c3.6,0,6.8,0.8,9.7,2.4c2.9,1.6,5.2,3.8,6.9,6.7c1.7,2.9,2.5,6.3,2.5,10.1
		c0,3.8-0.9,7.2-2.6,10.1c-1.7,2.9-4,5.2-7,6.7c-2.9,1.6-6.2,2.4-9.8,2.4C364.6,417.2,361.4,416.4,358.6,414.8z M373,407.7
		c1.5-0.8,2.7-2.1,3.6-3.7c0.9-1.7,1.3-3.7,1.3-6c0-3.5-0.9-6.3-2.8-8.2c-1.9-1.9-4.1-2.9-6.8-2.9s-4.9,1-6.7,2.9
		c-1.8,1.9-2.7,4.6-2.7,8.2c0,3.5,0.9,6.3,2.7,8.2c1.8,1.9,4,2.9,6.7,2.9C369.9,409,371.5,408.6,373,407.7z"/>
</g>
</svg>
